<svg xmlns="http://www.w3.org/2000/svg" xmlns:xlink="http://www.w3.org/1999/xlink" viewBox="0 0 2008.124 1361.291">
  <defs>
    <style>
      .cls-1 {
        clip-path: url(#clip-path);
      }

      .cls-2 {
        fill: #a9e3f1;
        opacity: 0.2;
      }

      .cls-3 {
        clip-path: url(#clip-path-2);
      }

      .cls-4 {
        fill: #7ad8e2;
        opacity: 0.4;
      }
    </style>
    <clipPath id="clip-path">
      <rect id="Rectangle_14" data-name="Rectangle 14" width="2008.124" height="1311.291"/>
    </clipPath>
    <clipPath id="clip-path-2">
      <rect id="Rectangle_13" data-name="Rectangle 13" width="1985" height="1311.291"/>
    </clipPath>
  </defs>
  <g id="Group_34" data-name="Group 34" transform="translate(5 -22)">
    <g id="Group_33" data-name="Group 33" class="cls-1" transform="translate(-5 72)">
      <path id="Path_87" data-name="Path 87" class="cls-2" d="M2035.818,652.513c0-49.625-20.483-94.486-53.416-127.04a57.4,57.4,0,0,0,7.631-28.584c0-32.554-26.909-59.153-59.842-59.153a59.359,59.359,0,0,0-55.023,36.524,178.963,178.963,0,0,0-20.885-1.191c-4.418,0-8.836.4-13.655.4.4-3.97.4-8.337.4-12.307,0-99.25-81.128-179.444-181.534-179.444A184.411,184.411,0,0,0,1586.8,296.8a118.787,118.787,0,0,0,4.016-31.76c0-70.269-57.834-127.437-128.922-127.437a128.864,128.864,0,0,0-119.283,79c-41.367,8.337-77.514,30.966-103.619,61.932a183.363,183.363,0,0,0-195.591,6.749,129.135,129.135,0,0,0-32.933-4.367c-4.418,0-8.836.4-13.254.794.4-5.558.8-11.116.8-17.071,0-99.25-81.128-179.444-181.534-179.444S634.951,165.394,634.951,264.644v.4a129.182,129.182,0,0,0-50.6,15.086,182.223,182.223,0,0,0-147.4-75.033c-87.956,0-161.052,61.535-177.92,143.714a127.753,127.753,0,0,0-57.834-13.5c-67.875,0-123.7,52.007-128.52,117.909a60.591,60.591,0,0,0-8.434-.794c-32.933,0-59.842,26.6-59.842,59.153v515.7H1990.435V771.216A176.7,176.7,0,0,0,2035.818,652.513Z" transform="translate(13.271 253.044)"/>
    </g>
    <g id="Group_32" data-name="Group 32" class="cls-3" transform="translate(13 22)">
      <path id="Path_86" data-name="Path 86" class="cls-4" d="M2042.168,465.792A172.988,172.988,0,0,0,1869.076,292.7H1865.5a63.028,63.028,0,0,0-63.123-63.123,61.858,61.858,0,0,0-46.846,21.041,170.913,170.913,0,0,0-96.471-29.378,144.6,144.6,0,0,0-22.629,1.588,126.344,126.344,0,0,0-117.909-80.988h0c-21.041-71.857-87.34-124.658-166.343-124.658-85.752,0-157.212,62.726-170.71,144.508h-2.382c-6.352,0-12.307.4-18.262.794a126.429,126.429,0,0,0-198.1-23.026,173.6,173.6,0,0,0-80.988-20.247,183.541,183.541,0,0,0-25.805,1.985,63.473,63.473,0,0,0-59.947-43.273h-3.176A126.455,126.455,0,0,0,683.237,14.8C620.511,14.8,568.9,60.455,558.579,120h-1.588a124.908,124.908,0,0,0-82.179,30.569A172.444,172.444,0,0,0,330.3,72.365c-90.913,0-165.549,70.269-172.3,159.2a120.09,120.09,0,0,0-31.76-3.97A126.65,126.65,0,0,0,0,354.235v908.336H1985V594.42A173.9,173.9,0,0,0,2042.168,465.792Z" transform="translate(0 43.956)"/>
    </g>
  </g>
</svg>
