<svg xmlns="http://www.w3.org/2000/svg" xmlns:xlink="http://www.w3.org/1999/xlink" viewBox="0 0 2002 1351.291">
  <defs>
    <style>
      .cls-1 {
        clip-path: url(#clip-path);
      }

      .cls-2 {
        fill: #a9e3f1;
        opacity: 0.2;
      }

      .cls-3 {
        fill: #7ad8e2;
        opacity: 0.4;
      }
    </style>
    <clipPath id="clip-path">
      <rect id="Rectangle_14" data-name="Rectangle 14" width="1985" height="1311.291"/>
    </clipPath>
  </defs>
  <g id="Group_34" data-name="Group 34" transform="translate(0 40)">
    <g id="Group_33" data-name="Group 33" class="cls-1" transform="translate(17 -40)">
      <path id="Path_87" data-name="Path 87" class="cls-2" d="M2012.426,652.513a179.133,179.133,0,0,0-52.8-127.04,57.918,57.918,0,0,0,7.543-28.584,59.3,59.3,0,0,0-59.153-59.153,58.673,58.673,0,0,0-54.389,36.524,174.89,174.89,0,0,0-20.644-1.191c-4.367,0-8.734.4-13.5.4.4-3.97.4-8.337.4-12.307A179.311,179.311,0,0,0,1568.58,296.8a120.092,120.092,0,0,0,3.97-31.76A127.458,127.458,0,0,0,1327.2,216.607c-40.891,8.337-76.621,30.966-102.426,61.932a179.492,179.492,0,0,0-193.339,6.749,126.269,126.269,0,0,0-32.554-4.367c-4.367,0-8.734.4-13.1.794.4-5.558.794-11.116.794-17.071a179.444,179.444,0,1,0-358.888,0v.4a126.614,126.614,0,0,0-50.022,15.086c-32.554-45.258-85.752-75.033-145.7-75.033A179.326,179.326,0,0,0,256.1,348.808a125.093,125.093,0,0,0-57.168-13.5c-67.093,0-122.276,52.007-127.04,117.909a59.223,59.223,0,0,0-8.337-.794A59.3,59.3,0,0,0,4.4,511.578v515.7H1967.565V771.216C1995.355,740.25,2012.426,698.168,2012.426,652.513Z" transform="translate(13.068 253.044)"/>
    </g>
    <g id="Group_32" data-name="Group 32" class="cls-1">
      <path id="Path_86" data-name="Path 86" class="cls-3" d="M2042.168,465.792A172.988,172.988,0,0,0,1869.076,292.7H1865.5a63.028,63.028,0,0,0-63.123-63.123,61.858,61.858,0,0,0-46.846,21.041,170.913,170.913,0,0,0-96.471-29.378,144.6,144.6,0,0,0-22.629,1.588,126.344,126.344,0,0,0-117.909-80.988h0c-21.041-71.857-87.34-124.658-166.343-124.658-85.752,0-157.212,62.726-170.71,144.508h-2.382c-6.352,0-12.307.4-18.262.794a126.429,126.429,0,0,0-198.1-23.026,173.6,173.6,0,0,0-80.988-20.247,183.541,183.541,0,0,0-25.805,1.985,63.473,63.473,0,0,0-59.947-43.273h-3.176A126.455,126.455,0,0,0,683.237,14.8C620.511,14.8,568.9,60.455,558.579,120h-1.588a124.908,124.908,0,0,0-82.179,30.569A172.444,172.444,0,0,0,330.3,72.365c-90.913,0-165.549,70.269-172.3,159.2a120.09,120.09,0,0,0-31.76-3.97A126.65,126.65,0,0,0,0,354.235v908.336H1985V594.42A173.9,173.9,0,0,0,2042.168,465.792Z" transform="translate(0 43.956)"/>
    </g>
  </g>
</svg>
