<svg xmlns="http://www.w3.org/2000/svg" viewBox="0 0 79.218 12.033">
  <defs>
    <style>
      .cls-1 {
        fill: #eeeef2;
      }
    </style>
  </defs>
  <path id="camera" class="cls-1" d="M114.185-959.984A6.015,6.015,0,0,1,120.2-966a6.016,6.016,0,0,1,6.017,6.016,6.017,6.017,0,0,1-6.017,6.017A6.016,6.016,0,0,1,114.185-959.984Zm-64.176,3.009A3.009,3.009,0,0,1,47-959.984a3.008,3.008,0,0,1,3.009-3.008H97.138a3.008,3.008,0,0,1,3.008,3.008,3.009,3.009,0,0,1-3.008,3.009Z" transform="translate(-47 966)"/>
</svg>
