<svg id="Group_30" data-name="Group 30" xmlns="http://www.w3.org/2000/svg" viewBox="0 0 524.399 225.053">
  <defs>
    <style>
      .cls-1 {
        fill: #9ed7f2;
      }

      .cls-2 {
        fill: #fff;
      }

      .cls-3 {
        fill: #e7f6fd;
      }

      .cls-4 {
        fill: #d6e8f2;
      }
    </style>
  </defs>
  <g id="Group_29" data-name="Group 29" transform="translate(0 0)">
    <path id="Path_75" data-name="Path 75" class="cls-1" d="M502.241,139.029h-1.3a42.5,42.5,0,0,0-41.274-31.716,41.535,41.535,0,0,0-20.854,5.648A70.049,70.049,0,0,0,423.6,94.279a39.953,39.953,0,0,0,4.345-19.116A42.647,42.647,0,0,0,385.37,32.585a43.18,43.18,0,0,0-21.289,5.648C351.047,15.641,326.717,0,298.912,0a75.634,75.634,0,0,0-59.087,28.675,73.628,73.628,0,0,0-27.806-5.214A74.815,74.815,0,0,0,140.332,76.9a74.712,74.712,0,0,0-47.357,35.626,42.792,42.792,0,0,0-20.854-5.648A42.048,42.048,0,0,0,35.192,128.6a25.348,25.348,0,0,0-11.3-2.607A23.826,23.826,0,0,0,0,149.89a23.557,23.557,0,0,0,23.9,23.9,25.349,25.349,0,0,0,11.3-2.607A42.571,42.571,0,0,0,72.121,192.9a41.535,41.535,0,0,0,20.854-5.648,75.232,75.232,0,0,0,65.17,37.8c21.723,0,41.274-9.558,55.177-24.33a74.363,74.363,0,0,0,55.177,24.33,76.034,76.034,0,0,0,53-21.723,75.265,75.265,0,0,0,118.174-16.075,42.792,42.792,0,0,0,20.854,5.648A43.927,43.927,0,0,0,492.248,179a18.662,18.662,0,0,0,10.862,3.041A21.323,21.323,0,0,0,524.4,160.752C523.53,148.587,513.972,139.029,502.241,139.029Z" transform="translate(0 0)"/>
    <path id="Path_76" data-name="Path 76" class="cls-2" d="M482.542,139.029a42.5,42.5,0,0,0-41.274-31.716,41.535,41.535,0,0,0-20.854,5.648,70.05,70.05,0,0,0-15.206-18.682,39.953,39.953,0,0,0,4.345-19.116,42.647,42.647,0,0,0-42.578-42.578,43.18,43.18,0,0,0-21.289,5.648C332.652,15.641,308.322,0,280.516,0a75.634,75.634,0,0,0-59.087,28.675,73.628,73.628,0,0,0-27.806-5.214A74.815,74.815,0,0,0,121.937,76.9,74.712,74.712,0,0,0,74.58,112.526a42.792,42.792,0,0,0-20.854-5.648A42.048,42.048,0,0,0,16.8,128.6a25.348,25.348,0,0,0-11.3-2.607" transform="translate(18.396 0)"/>
    <path id="Path_77" data-name="Path 77" class="cls-3" d="M502.907,103.131h-.869a27,27,0,0,0-26.068-20.42A28.221,28.221,0,0,0,462.5,86.187a51.377,51.377,0,0,0-9.558-12.165,27.971,27.971,0,0,0,3.041-12.165A27.072,27.072,0,0,0,429.048,34.92a24.392,24.392,0,0,0-13.468,3.91c-8.255-14.337-23.461-24.33-41.274-24.33a48.02,48.02,0,0,0-37.364,18.248,48.183,48.183,0,0,0-17.813-3.476A47.313,47.313,0,0,0,273.509,63.16c-2.172.434-3.91,1.3-5.648,1.738A36.2,36.2,0,0,0,236.58,46.216,35.38,35.38,0,0,0,204.864,66.2h0a20.386,20.386,0,0,0-18.247-29.544,20.641,20.641,0,0,0-10.427,2.607,35.809,35.809,0,0,0-31.281-18.248,35.192,35.192,0,0,0-28.24,13.9A33.847,33.847,0,0,0,103.2,32.313,35.976,35.976,0,0,0,68.877,57.946,35.824,35.824,0,0,0,46.284,74.891c-3.91-.869-7.386-1.738-10.862-1.738A21.009,21.009,0,0,0,17.61,83.58a11.568,11.568,0,0,0-5.214-1.3,11.3,11.3,0,0,0,0,22.592,10.32,10.32,0,0,0,5.214-1.3,20.463,20.463,0,0,0,17.813,10.427,20.182,20.182,0,0,0,9.993-2.607A35.879,35.879,0,0,0,103.2,117.9a36.743,36.743,0,0,0,26.5,11.731,35.091,35.091,0,0,0,25.2-10.427,35.091,35.091,0,0,0,25.2,10.427,36.312,36.312,0,0,0,16.944-4.345h1.738a12.749,12.749,0,0,0,6.951-1.738,27.23,27.23,0,0,0,23.461,13.9,28.22,28.22,0,0,0,13.468-3.476,47.3,47.3,0,0,0,41.274,23.9,48.846,48.846,0,0,0,35.192-15.206,47.2,47.2,0,0,0,35.192,15.206,46.206,46.206,0,0,0,33.454-13.9,47.429,47.429,0,0,0,74.728-9.993,28.22,28.22,0,0,0,13.468,3.476,26.33,26.33,0,0,0,19.985-9.124,13.129,13.129,0,0,0,6.951,2.172,13.687,13.687,0,0,0,0-27.371Z" transform="translate(3.679 48.497)"/>
  </g>
  <path id="Path_78" data-name="Path 78" class="cls-4" d="M95.844,28.4c.434,3.041-.434,5.648-1.3,8.689a24,24,0,0,1-6.083,7.386,36.033,36.033,0,0,1-21.723,6.951c-8.255,0-16.51-2.607-21.723-6.951a24,24,0,0,1-6.083-7.386,14.764,14.764,0,0,1-1.3-8.689c.869,5.648,4.345,10.862,9.558,14.772A38.354,38.354,0,0,0,67.169,48.82a37.21,37.21,0,0,0,19.985-5.648C91.5,39.262,94.975,34.048,95.844,28.4Z" transform="translate(125.299 94.988)"/>
  <path id="Path_79" data-name="Path 79" class="cls-4" d="M137.444,24.6c.434,3.041-.434,5.648-1.3,8.689a24,24,0,0,1-6.083,7.386,36.033,36.033,0,0,1-21.723,6.951c-8.255,0-16.51-2.607-21.723-6.951a24,24,0,0,1-6.083-7.386,14.764,14.764,0,0,1-1.3-8.689c.869,5.648,4.345,10.862,9.558,14.772a38.354,38.354,0,0,0,19.985,5.648,37.21,37.21,0,0,0,19.985-5.648C133.1,35.462,136.575,30.248,137.444,24.6Z" transform="translate(264.436 82.278)"/>
  <path id="Path_80" data-name="Path 80" class="cls-4" d="M119.944,34.4c.434,3.041-.434,5.648-1.3,8.689a24,24,0,0,1-6.083,7.386,36.033,36.033,0,0,1-21.723,6.951c-8.255,0-16.51-2.607-21.723-6.951a24,24,0,0,1-6.083-7.386,14.764,14.764,0,0,1-1.3-8.689c.869,5.648,4.345,10.862,9.558,14.772A38.354,38.354,0,0,0,91.269,54.82a37.21,37.21,0,0,0,19.985-5.648C115.6,45.262,119.075,40.048,119.944,34.4Z" transform="translate(205.905 115.056)"/>
</svg>
