<svg id="Group_26" data-name="Group 26" xmlns="http://www.w3.org/2000/svg" viewBox="0 0 373.489 188.281">
  <defs>
    <style>
      .cls-1 {
        fill: #9ed7f2;
      }

      .cls-2 {
        fill: #fff;
      }

      .cls-3 {
        fill: #e7f6fd;
      }

      .cls-4 {
        fill: #d6e8f2;
      }
    </style>
  </defs>
  <path id="Path_56" data-name="Path 56" class="cls-1" d="M314.493,65.727a49.581,49.581,0,0,0-48.611-39.368,52.725,52.725,0,0,0-14.72,2.054A46.843,46.843,0,0,0,208.029,0a47.624,47.624,0,0,0-36.972,17.8A70.1,70.1,0,0,0,61.511,65.043a49.754,49.754,0,0,0-10.27-1.027,47.071,47.071,0,1,0,0,94.141A38.462,38.462,0,0,0,62.2,156.787a47.057,47.057,0,0,0,44.5,31.494,46.162,46.162,0,0,0,36.287-17.117,47.239,47.239,0,0,0,36.287,17.117A46.21,46.21,0,0,0,218.3,167.4a49.589,49.589,0,0,0,16.09,2.739,46.742,46.742,0,0,0,38.683-20.2,47.208,47.208,0,0,0,21.909,5.477c26.017,0,47.242-21.224,47.242-46.9C341.537,89.69,330.583,73.259,314.493,65.727Z" transform="translate(9.693)"/>
  <path id="Path_57" data-name="Path 57" class="cls-2" d="M341.3,106.465a46.924,46.924,0,0,0-27.044-40.737A49.581,49.581,0,0,0,265.64,26.359a52.725,52.725,0,0,0-14.72,2.054A46.843,46.843,0,0,0,207.786,0a47.624,47.624,0,0,0-36.972,17.8A70.1,70.1,0,0,0,61.269,65.043,49.754,49.754,0,0,0,51,64.016,47.218,47.218,0,0,0,4.1,106.807H341.3Z" transform="translate(9.936)"/>
  <path id="Path_58" data-name="Path 58" class="cls-3" d="M344.726,59.015a31.569,31.569,0,0,0-39.71-8.216,38.786,38.786,0,0,0-27.729-11.639,19.52,19.52,0,0,0-4.45.342,48.113,48.113,0,0,0-78.051-11.639,29.962,29.962,0,0,0-5.477-.685,32.428,32.428,0,0,0-16.09,4.45,35.831,35.831,0,0,0-63.331,19.855A39.012,39.012,0,0,0,81.475,39.159,38.194,38.194,0,0,0,47.584,59.015a32.428,32.428,0,0,0-16.09-4.45,31.5,31.5,0,1,0,23.278,52.376,38.714,38.714,0,0,0,47.584,4.45,31.462,31.462,0,0,0,58.538,7.874,30.216,30.216,0,0,0,18.143,5.82,31.236,31.236,0,0,0,20.54-7.874,31.5,31.5,0,0,0,60.592-3.766,40.061,40.061,0,0,0,16.774,3.766,38.786,38.786,0,0,0,27.729-11.639,35.328,35.328,0,0,0,13.351,3.766,30.855,30.855,0,0,0,24.305,11.639,31.266,31.266,0,0,0,31.152-31.152C373.824,73.735,360.816,60.384,344.726,59.015Z" transform="translate(0 31.018)"/>
  <path id="Path_59" data-name="Path 59" class="cls-4" d="M88.328,25.6a24.117,24.117,0,0,1-1.369,9.928,22.888,22.888,0,0,1-5.477,8.558A25.717,25.717,0,0,1,63,52.3,25.139,25.139,0,0,1,44.51,44.086a28.118,28.118,0,0,1-5.477-8.558A24.117,24.117,0,0,1,37.663,25.6a27.026,27.026,0,0,0,8.216,17.117,24.819,24.819,0,0,0,34.233,0A27.026,27.026,0,0,0,88.328,25.6Z" transform="translate(91.053 62.036)"/>
  <path id="Path_60" data-name="Path 60" class="cls-4" d="M88.032,25.7a13.306,13.306,0,0,1-.685,5.135,12.078,12.078,0,0,1-2.739,4.45,13.57,13.57,0,0,1-9.243,4.108,12.226,12.226,0,0,1-9.243-4.108,19.409,19.409,0,0,1-2.739-4.45A13.306,13.306,0,0,1,62.7,25.7a12.74,12.74,0,0,0,4.108,8.558,13.507,13.507,0,0,0,8.558,3.423,13.507,13.507,0,0,0,8.558-3.423A14.382,14.382,0,0,0,88.032,25.7Z" transform="translate(151.941 62.279)"/>
  <path id="Path_61" data-name="Path 61" class="cls-4" d="M119.413,29a24.117,24.117,0,0,1-1.369,9.928,22.888,22.888,0,0,1-5.477,8.558A25.717,25.717,0,0,1,94.081,55.7,25.139,25.139,0,0,1,75.6,47.486a28.119,28.119,0,0,1-5.477-8.558A24.02,24.02,0,0,1,69.091,29a27.026,27.026,0,0,0,8.216,17.117,24.819,24.819,0,0,0,34.233,0A28.448,28.448,0,0,0,119.413,29Z" transform="translate(167.117 70.276)"/>
</svg>
