<svg id="Group_31" data-name="Group 31" xmlns="http://www.w3.org/2000/svg" viewBox="0 0 478.023 260.625">
  <defs>
    <style>
      .cls-1 {
        fill: #9ed7f2;
      }

      .cls-2 {
        fill: #fff;
      }

      .cls-3 {
        fill: #e7f6fd;
      }

      .cls-4 {
        fill: #d6e8f2;
      }
    </style>
  </defs>
  <path id="Path_81" data-name="Path 81" class="cls-1" d="M389.408,106.1a50.71,50.71,0,0,0-18.114,3.327,83.769,83.769,0,0,0-65.8-32.162,27.98,27.98,0,0,0-5.545.37A112.581,112.581,0,0,0,192.737,0C138.764,0,93.663,38.077,82.572,89.093H79.985a53.642,53.642,0,0,0-53.6,53.6,55.969,55.969,0,0,0,3.7,19.593,34.983,34.983,0,0,0,9.242,68.761,38.746,38.746,0,0,0,13.309-2.588,50.388,50.388,0,0,0,96.856-11.09,111.422,111.422,0,0,0,43.253,8.5,109.352,109.352,0,0,0,48.059-11.09,83.962,83.962,0,0,0,132.346-4.067,59.834,59.834,0,0,0,16.266,2.588,53.6,53.6,0,0,0,0-107.207Z" transform="translate(11.327 0)"/>
  <path id="Path_82" data-name="Path 82" class="cls-2" d="M14.266,161.92H426.83V159.7a53.642,53.642,0,0,0-53.6-53.6,50.71,50.71,0,0,0-18.114,3.327,83.769,83.769,0,0,0-65.8-32.162,27.98,27.98,0,0,0-5.545.37A112.581,112.581,0,0,0,176.556,0C122.583,0,77.482,38.077,66.391,89.093H63.8a53.642,53.642,0,0,0-53.6,53.6,57.7,57.7,0,0,0,4.066,19.223Z" transform="translate(27.507 0)"/>
  <circle id="Ellipse_34" data-name="Ellipse 34" class="cls-3" cx="29.944" cy="29.944" r="29.944" transform="translate(111.274 121.995)"/>
  <path id="Path_83" data-name="Path 83" class="cls-3" d="M445.1,79.228a34.054,34.054,0,0,0-18.484,5.545,42.887,42.887,0,0,0-26.987-9.612A47.325,47.325,0,0,0,380.4,79.6a41.917,41.917,0,0,0-37.338-22.181,45.886,45.886,0,0,0-9.981,1.109A65.745,65.745,0,0,0,240.293,47.8,64.376,64.376,0,0,0,123.1,71.095,42.422,42.422,0,0,0,91.681,57.047,41.917,41.917,0,0,0,54.343,79.228a32.527,32.527,0,0,0-21.072-7.394,33.271,33.271,0,1,0,0,66.543,38.719,38.719,0,0,0,11.09-1.848v1.848a33.369,33.369,0,0,0,33.271,33.271,34.032,34.032,0,0,0,29.2-17.005,21.569,21.569,0,0,0,9.612,2.218,22.584,22.584,0,0,0,11.09-2.957,42.391,42.391,0,0,0,81.7-11.46,78.912,78.912,0,0,0,15.527-8.5,65.9,65.9,0,0,0,85.766,24.4A33.354,33.354,0,0,0,371.9,149.1a42.149,42.149,0,0,0,27.356,9.981,41.688,41.688,0,0,0,33.271-16.266,32.563,32.563,0,0,0,12.2,2.218A33.369,33.369,0,0,0,478,111.76C478.737,94.015,463.58,79.228,445.1,79.228ZM130.5,117.674h0c0-.739.37-1.109.739-1.848a.362.362,0,0,0,.37.37C131.237,116.565,130.867,117.3,130.5,117.674Z" transform="translate(0 50.161)"/>
  <path id="Path_84" data-name="Path 84" class="cls-4" d="M129.322,36.7a26.044,26.044,0,0,1-1.479,10.721,29.464,29.464,0,0,1-5.915,9.612,27.923,27.923,0,0,1-46.58-9.612A26.044,26.044,0,0,1,73.87,36.7c.739,7.024,3.7,14.048,8.872,18.484a27.3,27.3,0,0,0,18.484,7.394,26.624,26.624,0,0,0,18.484-7.394C125.625,50.748,128.583,44.094,129.322,36.7Z" transform="translate(198.954 98.973)"/>
  <path id="Path_85" data-name="Path 85" class="cls-4" d="M109.423,35.7a40.7,40.7,0,0,1-1.848,14.787,36.529,36.529,0,0,1-8.133,12.939,38,38,0,0,1-28.1,12.2,38.61,38.61,0,0,1-28.1-12.2,36.529,36.529,0,0,1-8.133-12.939A40.7,40.7,0,0,1,33.269,35.7a38.037,38.037,0,0,0,12.2,25.508c7.024,6.285,16.266,10.351,25.508,9.981a38.077,38.077,0,0,0,25.508-9.981A35.847,35.847,0,0,0,109.423,35.7Z" transform="translate(89.465 96.276)"/>
</svg>
