<svg id="Group_28" data-name="Group 28" xmlns="http://www.w3.org/2000/svg" viewBox="0 0 503.456 276.72">
  <defs>
    <style>
      .cls-1 {
        fill: #9ed7f2;
      }

      .cls-2 {
        fill: #fff;
      }

      .cls-3 {
        fill: #e7f6fd;
      }

      .cls-4 {
        fill: #d6e8f2;
      }
    </style>
  </defs>
  <path id="Path_69" data-name="Path 69" class="cls-1" d="M455.379,155.108a8.769,8.769,0,0,0-3.607.515,51.944,51.944,0,0,0-48.439-32.464H402.3a77.19,77.19,0,0,0,1.031-11.337A72.024,72.024,0,0,0,331.19,39.679,73.239,73.239,0,0,0,294.6,49.47C279.144,20.1,248.741,0,213.184,0a92.147,92.147,0,0,0-92.24,92.24A68.425,68.425,0,0,0,63.23,123.674c-2.061,0-4.122-.515-6.184-.515C28.189,123.159,5,146.347,5,174.689a51.9,51.9,0,0,0,52.046,52.046,50.257,50.257,0,0,0,26.281-7.214c2.061,1.031,4.122,2.577,6.184,3.607v3.092a50.356,50.356,0,0,0,92.755,27.311A93.6,93.6,0,0,0,244.1,276.72a94.632,94.632,0,0,0,66.99-27.827,51.752,51.752,0,0,0,91.21-21.643h1.031a49.894,49.894,0,0,0,41.74-21.643,30.131,30.131,0,0,0,9.791,2.061A25.84,25.84,0,0,0,480.629,181.9C481.144,166.96,469.808,155.108,455.379,155.108Z" transform="translate(20.765)"/>
  <path id="Path_70" data-name="Path 70" class="cls-2" d="M477.122,167.99a25.512,25.512,0,0,0-22.158-12.367,8.769,8.769,0,0,0-3.607.515,51.944,51.944,0,0,0-48.439-32.464h-1.031a77.19,77.19,0,0,0,1.031-11.337,72.024,72.024,0,0,0-72.143-72.143,73.239,73.239,0,0,0-36.587,9.791C278.728,20.1,248.325,0,212.769,0a92.147,92.147,0,0,0-92.24,92.24,68.425,68.425,0,0,0-57.714,31.434c-2.061,0-4.122-.515-6.184-.515A52.191,52.191,0,0,0,5.1,167.99Z" transform="translate(21.181)"/>
  <path id="Path_71" data-name="Path 71" class="cls-3" d="M472.537,98.756a19.321,19.321,0,0,0-5.668.515,32.835,32.835,0,0,0-30.4-20.1,21.137,21.137,0,0,0-5.668.515,46.408,46.408,0,0,0-45.347-37.1c-17.005,0-31.434,9.276-39.679,22.674A47.718,47.718,0,0,0,300.94,34.343,50.3,50.3,0,0,0,272.6,43.618a47.932,47.932,0,0,0-90.179,1.546,67.86,67.86,0,0,0-38.133-11.337A69.506,69.506,0,0,0,81.934,71.96a56.3,56.3,0,0,0-27.827-7.73C24.735,64.746,0,89.481,0,119.884a55.2,55.2,0,0,0,55.138,55.138,53.926,53.926,0,0,0,41.74-19.582,70.859,70.859,0,0,0,48.439,19.582h5.153a34.835,34.835,0,0,0,34.01,26.8A35.323,35.323,0,0,0,215.4,183.782a65.273,65.273,0,0,0,24.219,4.638,66.474,66.474,0,0,0,45.862-18.036,55.767,55.767,0,0,0,86.572,1.031,47.647,47.647,0,0,0,76.781-21.128,30.438,30.438,0,0,0,23.7,10.821,31.177,31.177,0,0,0,0-62.352Z" transform="translate(0 52.744)"/>
  <path id="Path_72" data-name="Path 72" class="cls-4" d="M74.349,30.4a17.176,17.176,0,0,1-1.031,8.76,21.615,21.615,0,0,1-4.638,7.214,22.4,22.4,0,0,1-31.949,0,21.615,21.615,0,0,1-4.638-7.214,16.541,16.541,0,0,1-1.031-8.76,21.687,21.687,0,0,0,7.214,14.429A22.146,22.146,0,0,0,52.706,50.5a21.156,21.156,0,0,0,14.429-5.668C71.772,41.221,73.833,36.068,74.349,30.4Z" transform="translate(128.167 126.254)"/>
  <path id="Path_73" data-name="Path 73" class="cls-4" d="M92.349,25.9a17.176,17.176,0,0,1-1.031,8.76,21.615,21.615,0,0,1-4.638,7.214,22.4,22.4,0,0,1-31.949,0,21.615,21.615,0,0,1-4.638-7.214,16.541,16.541,0,0,1-1.031-8.76,21.687,21.687,0,0,0,7.214,14.429A22.146,22.146,0,0,0,70.706,46a21.156,21.156,0,0,0,14.429-5.668A21.687,21.687,0,0,0,92.349,25.9Z" transform="translate(202.923 107.565)"/>
  <path id="Path_74" data-name="Path 74" class="cls-4" d="M144.222,31.8c.515,5.668-.515,11.337-2.061,17.005a40.655,40.655,0,0,1-9.276,14.944,44.51,44.51,0,0,1-31.949,13.913c-11.852,0-24.219-5.153-31.949-13.913a45.362,45.362,0,0,1-9.276-14.944A38.712,38.712,0,0,1,57.65,31.8c1.031,11.337,6.184,22.158,13.913,29.373,8.245,7.214,18.551,11.852,29.373,11.852a41.73,41.73,0,0,0,29.373-11.852C138.038,53.958,143.191,43.137,144.222,31.8Z" transform="translate(238.652 132.068)"/>
</svg>
