<svg id="Group_27" data-name="Group 27" xmlns="http://www.w3.org/2000/svg" viewBox="0 0 778.2 305.861">
  <defs>
    <style>
      .cls-1 {
        fill: #9ed7f2;
      }

      .cls-2 {
        fill: #fff;
      }

      .cls-3 {
        fill: #e7f6fd;
      }

      .cls-4 {
        fill: #d6e8f2;
      }
    </style>
  </defs>
  <path id="Path_62" data-name="Path 62" class="cls-1" d="M734,181.806a27.571,27.571,0,0,0-12.12,2.852A41.678,41.678,0,0,0,688.723,167.9a48.507,48.507,0,0,0-10.694,1.426,40.985,40.985,0,0,0-40.282-32.44,39.655,39.655,0,0,0-18.537,4.634A65.4,65.4,0,0,0,555.4,60.958a74.609,74.609,0,0,0-18.181,2.5A65.2,65.2,0,0,0,472.339,6.06a63.455,63.455,0,0,0-46.7,19.963A98.56,98.56,0,0,0,358.977,0a97.223,97.223,0,0,0-94.111,72.366,43.141,43.141,0,0,0-6.773-.356,65.3,65.3,0,0,0-58.82,36.718,37.519,37.519,0,0,0-14.259-2.5,41.1,41.1,0,0,0-40.639,35.292,41,41,0,0,0-60.958,26.736,36.8,36.8,0,0,0-10.694-1.426,40.691,40.691,0,0,0-33.153,16.755A27.4,27.4,0,0,0,0,208.185c0,15.329,12.12,27.093,27.449,27.093a27.572,27.572,0,0,0,12.12-2.852,41.678,41.678,0,0,0,33.153,16.755,42.389,42.389,0,0,0,23.171-7.13,41.39,41.39,0,0,0,36.718,22.458A40.589,40.589,0,0,0,159.7,254.172a41.17,41.17,0,0,0,70.583,4.634,42.669,42.669,0,0,0,18.181,4.278A40.2,40.2,0,0,0,280.551,247.4a40.993,40.993,0,0,0,40.282,34.222,41.433,41.433,0,0,0,14.972-2.852A97.333,97.333,0,0,0,488.38,255.6c7.13,5.347,15.685,8.912,25.31,8.912a40.11,40.11,0,0,0,18.181-4.278,41.17,41.17,0,0,0,70.583-4.634,40.589,40.589,0,0,0,27.093,10.338c16.042,0,29.588-9.269,36.718-22.458a41.193,41.193,0,0,0,56.324-9.625,27.4,27.4,0,0,0,39.569-24.6C761.445,194.283,749.325,181.806,734,181.806Z" transform="translate(0)"/>
  <path id="Path_63" data-name="Path 63" class="cls-2" d="M761.445,207.829a27.1,27.1,0,0,0-27.093-26.023,27.571,27.571,0,0,0-12.12,2.852A41.679,41.679,0,0,0,689.079,167.9a48.508,48.508,0,0,0-10.694,1.426,40.985,40.985,0,0,0-40.282-32.44,39.655,39.655,0,0,0-18.537,4.634,65.4,65.4,0,0,0-63.81-80.565,74.609,74.609,0,0,0-18.181,2.5A65.2,65.2,0,0,0,472.7,6.06,63.455,63.455,0,0,0,426,26.023,100.146,100.146,0,0,0,358.977,0a97.223,97.223,0,0,0-94.111,72.366,43.141,43.141,0,0,0-6.773-.356,65.3,65.3,0,0,0-58.82,36.718,37.519,37.519,0,0,0-14.259-2.5,41.1,41.1,0,0,0-40.639,35.292,41,41,0,0,0-60.958,26.736,36.8,36.8,0,0,0-10.694-1.426,40.691,40.691,0,0,0-33.153,16.755A27.4,27.4,0,0,0,0,208.185H761.445Z" transform="translate(0)"/>
  <path id="Path_64" data-name="Path 64" class="cls-3" d="M754.672,138.526H753.6a32.573,32.573,0,0,0-49.551-19.607,50.88,50.88,0,0,0-46.7-31.014,51.911,51.911,0,0,0-26.736,7.486,30.193,30.193,0,0,0-29.588-24.954,24.613,24.613,0,0,0-8.912,1.426,51.143,51.143,0,0,0-47.056-31.37c-23.528,0-43.134,16.042-49.195,37.787a35.791,35.791,0,0,0-12.477-11.764c0-1.426.357-2.852.357-4.278a40.537,40.537,0,0,0-79.139-12.477,51.33,51.33,0,0,0-27.449,8.912A50.988,50.988,0,0,0,285.9,62.6a39.845,39.845,0,0,0-49.551,8.912,40.777,40.777,0,0,0-18.537-4.634,40.2,40.2,0,0,0-32.083,15.685,49.855,49.855,0,0,0-30.3-9.981,51.006,51.006,0,0,0-49.195,37.074,43.745,43.745,0,0,0-13.9-2.5,41.118,41.118,0,0,0-25.667,9.269A41.118,41.118,0,0,0,41,107.156c-22.815,1.069-41,18.894-41,41.352a40.621,40.621,0,0,0,40.639,40.639H41a25.4,25.4,0,0,0,49.907,0h.356a41.717,41.717,0,0,0,17.468-3.921,40.236,40.236,0,0,0,67.375,3.921,30.368,30.368,0,0,0,8.2,1.426c12.833,0,23.171-9.269,25.31-21.745h.356a50.2,50.2,0,0,0,41.708,21.389A52.668,52.668,0,0,0,283.4,179.165a25.183,25.183,0,0,0,23.171,14.972,25.727,25.727,0,0,0,19.963-9.625,51.06,51.06,0,0,0,43.847,24.954,69.226,69.226,0,0,0,8.556-.713,40.561,40.561,0,0,0,78.426-14.259v-2.139c.713,0,1.069-.356,1.782-.356a50.452,50.452,0,0,0,43.134,24.241A51.316,51.316,0,0,0,549.7,183.8a49.96,49.96,0,0,0,17.468,8.556c7.13,19.963,25.667,34.222,48.125,34.222a50.691,50.691,0,0,0,48.838-36.361A51.3,51.3,0,0,0,699.061,169.9a33.142,33.142,0,0,0,23.528,9.981,31.6,31.6,0,0,0,15.329-3.921c4.278,4.991,10.338,8.556,17.468,8.556A22.975,22.975,0,0,0,778.2,161.7C777.487,148.864,767.149,138.526,754.672,138.526Z" transform="translate(0 55.4)"/>
  <path id="Path_65" data-name="Path 65" class="cls-4" d="M132.539,42.8a20.747,20.747,0,0,1-1.069,9.269,22.657,22.657,0,0,1-4.991,7.843,23.3,23.3,0,0,1-34.222,0,26.531,26.531,0,0,1-4.991-7.843A20.178,20.178,0,0,1,86.2,42.8c.713,6.06,3.208,11.764,7.486,15.685a23.329,23.329,0,0,0,31.37,0C129.331,54.564,131.826,48.86,132.539,42.8Z" transform="translate(220.735 109.774)"/>
  <path id="Path_66" data-name="Path 66" class="cls-4" d="M169.742,53.5a37.368,37.368,0,0,1-1.426,12.477,28.645,28.645,0,0,1-6.773,10.694c-5.7,6.417-14.616,9.981-23.171,9.981S120.9,83.088,115.2,76.671a33.971,33.971,0,0,1-6.773-10.694A24.68,24.68,0,0,1,107,53.5a32.59,32.59,0,0,0,9.982,21.032c5.7,5.347,13.546,8.556,21.032,8.2a30.575,30.575,0,0,0,21.032-8.2A30.3,30.3,0,0,0,169.742,53.5Z" transform="translate(273.721 137.218)"/>
  <path id="Path_67" data-name="Path 67" class="cls-4" d="M218.142,50.3a37.369,37.369,0,0,1-1.426,12.477,28.645,28.645,0,0,1-6.773,10.694c-5.7,6.417-14.616,9.981-23.171,9.981S169.3,79.888,163.6,73.471a33.971,33.971,0,0,1-6.773-10.694A24.68,24.68,0,0,1,155.4,50.3a32.59,32.59,0,0,0,9.982,21.032c5.7,5.347,13.546,8.556,21.032,8.2a30.575,30.575,0,0,0,21.032-8.2A30.994,30.994,0,0,0,218.142,50.3Z" transform="translate(397.859 129.01)"/>
  <path id="Path_68" data-name="Path 68" class="cls-4" d="M90.226,47a19.231,19.231,0,0,1-1.069,8.912A23.319,23.319,0,0,1,67.411,70.884,23.319,23.319,0,0,1,45.666,55.912,19.231,19.231,0,0,1,44.6,47,22.73,22.73,0,0,0,82.74,62.329,25.087,25.087,0,0,0,90.226,47Z" transform="translate(114.038 120.546)"/>
</svg>
