<svg xmlns="http://www.w3.org/2000/svg" viewBox="0 0 46.791 46.699">
  <path id="envelope-regular" d="M42.4,64H4.387C1.964,64,0,66.613,0,69.837v35.024c0,3.224,1.964,5.837,4.387,5.837H42.4c2.423,0,4.387-2.613,4.387-5.837V69.837C46.791,66.613,44.827,64,42.4,64Zm0,5.837V74.8c-2.049,2.221-5.316,5.673-12.3,12.95-1.539,1.611-3.612-2.916-6.709-2.873-2.977.017-5.171,4.483-6.709,2.873C9.7,80.474,6.436,77.021,4.387,74.8V69.837ZM4.387,104.861V82.29c2.094,2.22,5.064,5.334,9.59,10.051,2,2.092,8.138-2.462,9.419-2.473,1.319-.092,7.358,4.632,9.418,2.474,4.526-4.716,7.5-7.832,9.591-10.052v22.571Z" transform="translate(0 -64)"/>
</svg>
