<svg xmlns="http://www.w3.org/2000/svg" viewBox="0 0 250 250">
  <defs>
    <style>
      .cls-1 {
        stroke: #fff;
      }
    </style>
  </defs>
  <path id="Exclusion_1" data-name="Exclusion 1" class="cls-1" d="M-1788-923.5h-154a47.2,47.2,0,0,1-18.489-3.733,47.342,47.342,0,0,1-15.1-10.18,47.343,47.343,0,0,1-10.18-15.1A47.2,47.2,0,0,1-1989.5-971v-154a47.2,47.2,0,0,1,3.733-18.489,47.343,47.343,0,0,1,10.18-15.1,47.342,47.342,0,0,1,15.1-10.18A47.2,47.2,0,0,1-1942-1172.5h154a47.2,47.2,0,0,1,18.489,3.733,47.339,47.339,0,0,1,15.1,10.18,47.341,47.341,0,0,1,10.18,15.1A47.2,47.2,0,0,1-1740.5-1125v154a47.2,47.2,0,0,1-3.733,18.489,47.339,47.339,0,0,1-10.18,15.1,47.343,47.343,0,0,1-15.1,10.18A47.2,47.2,0,0,1-1788-923.5ZM-1897.6-1067h0c-2.256,6.236-4.308,12.595-6.1,18.9s-3.307,12.5-4.5,18.4-2.137,11.593-2.8,16.9a119.054,119.054,0,0,0-1,14.6c0,8.36,1.076,14.887,3.2,19.4a24.3,24.3,0,0,0,8.1,10.1,23.154,23.154,0,0,0,10.6,3.9,103.1,103.1,0,0,0,10.7.6c-.67-.8-1.444-1.814-2.3-3a19.3,19.3,0,0,1-2.4-5.1,47.987,47.987,0,0,1-1.8-8.7,111.45,111.45,0,0,1-.7-13.8c0-4.91.2-10.361.6-16.2s1-11.929,1.8-18.1,1.8-12.5,3-18.8,2.605-12.587,4.2-18.7a95.231,95.231,0,0,1,12.8,2.1,96.542,96.542,0,0,1,14.6,4.9V-987h29v-147.2a35.578,35.578,0,0,0-8.5-2.2,58.954,58.954,0,0,0-7.5-.6,31.918,31.918,0,0,0-8.6,1.175,34.677,34.677,0,0,0-8.2,3.525,63.928,63.928,0,0,0-15.2,12.8,115.328,115.328,0,0,0-13.4,18.8,194.952,194.952,0,0,0-11.2,22.7c-4.644-.4-8.614-.6-11.8-.6a62.253,62.253,0,0,0-14.449,1.55,37.59,37.59,0,0,0-11.35,4.649,22.776,22.776,0,0,0-7.35,7.05,16.345,16.345,0,0,0-2.45,8.75,15.121,15.121,0,0,0,1.175,6.15,11.357,11.357,0,0,0,3.525,4.45,16.922,16.922,0,0,0,10.5,3.6,12.759,12.759,0,0,0,7-1.8,5.5,5.5,0,0,0,2.8-4.8,9.117,9.117,0,0,0-1.6-4.9c-1.062-1.659-1.936-2.5-2.6-2.5a9.268,9.268,0,0,1,2.2-4.5,12.475,12.475,0,0,1,4.6-3.1c3.849-1.592,9.03-2.6,15.4-3Zm48-1.4h0c-4.11-1.458-8.315-2.77-12.5-3.9s-8.386-2.1-12.5-2.9a162.7,162.7,0,0,1,11-29.6,63.778,63.778,0,0,1,6.7-10.85,31.611,31.611,0,0,1,7.3-6.95Z" transform="translate(1990 1173)"/>
</svg>
