<svg xmlns="http://www.w3.org/2000/svg" xmlns:xlink="http://www.w3.org/1999/xlink" viewBox="0 0 610.181 1044.372">
  <defs>
    <style>
      .cls-1 {
        fill: #fff;
      }

      .cls-2 {
        fill: #eeeef2;
      }

      .cls-3 {
        filter: url(#body);
      }
    </style>
    <filter id="body" x="0" y="0" width="610.181" height="1044.372" filterUnits="userSpaceOnUse">
      <feOffset input="SourceAlpha"/>
      <feGaussianBlur stdDeviation="30" result="blur"/>
      <feFlood flood-opacity="0.078"/>
      <feComposite operator="in" in2="blur"/>
      <feComposite in="SourceGraphic"/>
    </filter>
  </defs>
  <g id="phone" transform="translate(90 90)">
    <g class="cls-3" transform="matrix(1, 0, 0, 1, -90, -90)">
      <path id="body-2" data-name="body" class="cls-1" d="M64.176-120.628A60.165,60.165,0,0,1,4.011-180.792V-666.125A4.011,4.011,0,0,1,0-670.136v-54.149A4.011,4.011,0,0,1,4.011-728.3V-744.34A4.011,4.011,0,0,1,0-748.35V-802.5a4.011,4.011,0,0,1,4.011-4.012v-30.082A4.011,4.011,0,0,1,0-840.6V-864.67a4.011,4.011,0,0,1,4.011-4.011v-56.154A60.165,60.165,0,0,1,64.176-985H366.005a60.164,60.164,0,0,1,60.165,60.164v139.383a4.011,4.011,0,0,1,4.012,4.01v90.248a4.011,4.011,0,0,1-4.012,4.012v506.39a60.164,60.164,0,0,1-60.165,60.165Z" transform="translate(90 1075)"/>
    </g>
    <path id="camera" class="cls-2" d="M114.185-959.984A6.015,6.015,0,0,1,120.2-966a6.016,6.016,0,0,1,6.017,6.016,6.017,6.017,0,0,1-6.017,6.017A6.016,6.016,0,0,1,114.185-959.984Zm-64.176,3.009A3.009,3.009,0,0,1,47-959.984a3.008,3.008,0,0,1,3.009-3.008H97.138a3.008,3.008,0,0,1,3.008,3.008,3.009,3.009,0,0,1-3.008,3.009Z" transform="translate(141.517 994.077)"/>
  </g>
</svg>
