<?xml version="1.0" standalone="no"?>
<!DOCTYPE svg PUBLIC "-//W3C//DTD SVG 20010904//EN"
 "http://www.w3.org/TR/2001/REC-SVG-20010904/DTD/svg10.dtd">
<svg version="1.0" xmlns="http://www.w3.org/2000/svg"
 width="262.000000pt" height="262.000000pt" viewBox="0 0 262.000000 262.000000"
 preserveAspectRatio="xMidYMid meet">
<metadata>
Created by potrace 1.11, written by Peter Selinger 2001-2013
</metadata>
<g transform="translate(0.000000,262.000000) scale(0.100000,-0.100000)"
fill="#000000" stroke="none">
<path d="M433 2475 c-85 -18 -156 -59 -223 -125 -68 -68 -106 -138 -125 -227
-22 -100 -22 -1646 0 -1746 38 -181 191 -327 375 -357 44 -7 332 -10 890 -8
814 3 826 3 883 25 140 51 244 158 295 302 14 41 17 138 20 871 2 559 -1 846
-8 890 -22 134 -118 269 -237 333 -105 56 -115 57 -998 56 -643 0 -823 -3
-872 -14z m1273 -376 l44 -11 0 -744 0 -744 -150 0 -150 0 0 366 0 365 -32 14
c-38 15 -135 40 -194 50 l-40 6 -22 -98 c-62 -279 -88 -609 -61 -773 5 -36 21
-85 35 -109 l24 -44 -74 5 c-182 12 -260 116 -258 348 1 158 48 412 112 594
11 33 20 63 20 68 0 25 -134 -7 -174 -42 -27 -25 -29 -31 -18 -47 41 -59 38
-104 -8 -128 -94 -48 -220 24 -220 127 0 55 21 97 67 139 65 59 137 81 284 87
l126 5 42 87 c106 221 245 391 373 455 63 31 79 35 150 35 43 0 99 -5 124 -11z"/>
<path d="M1409 1919 c-42 -45 -92 -132 -132 -229 -31 -76 -69 -189 -64 -191 1
0 55 -15 120 -33 l117 -33 0 259 c0 142 -3 258 -6 258 -3 0 -19 -14 -35 -31z"/>
</g>
</svg>
