<svg xmlns="http://www.w3.org/2000/svg" viewBox="0 0 1292 68" width="1292" height="68"><path d="M11.36 23h45.438M11.36 45.719h45.438M68.157 34.36H0" fill="none" stroke="#f8fcff"/><path d="M79.424 22.978l45.308.197M79.36 45.797c.76.044 1.534.068 2.311.068.777 0 1.552-.024 2.311-.068.76-.043 1.5-.101 2.216-.162.716-.062 1.408-.12 2.081-.163.672-.044 1.33-.068 1.985-.068h2.148c.655 0 1.312.024 1.985.068 4.969.043 9.957.101 14.969.163 5.013.061 10.049.119 15.105.162m11.341-11.344l-67.469-.197" fill="none" stroke="#f8fcff" stroke-width="1.00721"/><path d="M147.653 22.899l44.845.897m-45.137 22.28c.894.196 1.859.307 2.834.307.976 0 1.94-.111 2.834-.307.894-.197 1.703-.463 2.4-.741.698-.278 1.285-.545 1.786-.742.501-.196.932-.307 1.351-.307h2.093c.42 0 .85.111 1.352.307 4.686.197 9.459.464 14.342.742 4.883.278 9.876.544 14.956.741m11.278-11.292l-65.025-.898" fill="none" stroke="#f8fcff" stroke-width="1.032801"/><path d="M216.119 22.738l43.899 2.328m-44.655 21.579c1.17.51 2.522.797 3.903.797 1.381 0 2.734-.287 3.903-.797 1.17-.51 2.117-1.202 2.776-1.923.66-.721 1.033-1.414 1.183-1.924.15-.51.118-.796.057-.796h1.979c-.061 0-.094.286.056.796 4.11.51 8.442 1.203 13.061 1.924 4.619.721 9.525 1.413 14.653 1.923m11.148-11.186l-60.028-2.328" fill="none" stroke="#f8fcff" stroke-width="1.085105"/><path d="M284.923 22.46l42.27 4.792m-43.826 20.373c1.645 1.049 3.664 1.64 5.744 1.64 2.079 0 4.099-.591 5.743-1.64 1.644-1.05 2.829-2.475 3.424-3.959.595-1.484.6-2.909.145-3.958-.454-1.05-1.284-1.64-2.174-1.64h1.785c-.889 0-1.719.59-2.174 1.64 3.115 1.049 6.689 2.474 10.853 3.958 4.165 1.484 8.919 2.909 14.133 3.959m10.924-11.003l-51.426-4.791" fill="none" stroke="#f8fcff" stroke-width="1.175168"/><path d="M354.1 22.054l39.884 8.402m-42.611 18.605c2.339 1.84 5.338 2.875 8.44 2.875 3.102 0 6.1-1.035 8.44-2.875s3.875-4.339 4.374-6.941c.5-2.603-.035-5.101-1.376-6.941-1.34-1.841-3.339-2.876-5.442-2.876h1.5c-2.103 0-4.102 1.035-5.442 2.876 1.658 1.84 4.121 4.338 7.619 6.941 3.498 2.602 8.031 5.101 13.369 6.941m10.597-10.734l-38.821-8.402" fill="none" stroke="#f8fcff" stroke-width="1.30714"/><path d="M423.439 21.592l37.17 12.508m-41.23 16.594c3.131 2.739 7.242 4.28 11.508 4.28 4.265 0 8.376-1.541 11.507-4.28 3.131-2.739 5.064-6.459 5.455-10.334.391-3.874-.758-7.594-3.106-10.333s-5.676-4.28-9.159-4.28h1.174c-3.483 0-6.811 1.541-9.159 4.28.001 2.739 1.2 6.459 3.94 10.333 2.74 3.875 7.022 7.595 12.501 10.334m10.225-10.429l-24.484-12.508" fill="none" stroke="#f8fcff" stroke-width="1.457252"/><path d="M492.626 21.182l34.763 16.15m-40.005 14.81c3.833 3.537 8.931 5.527 14.229 5.527 5.297 0 10.396-1.99 14.228-5.527 3.833-3.537 6.118-8.339 6.413-13.342.296-5.002-1.399-9.805-4.64-13.342-3.242-3.537-7.749-5.527-12.456-5.527h.886c-4.707 0-9.214 1.99-12.456 5.527-1.469 3.537-1.39 8.34.677 13.342 2.068 5.003 6.126 9.805 11.731 13.342m9.895-10.157l-11.768-16.15" fill="none" stroke="#f8fcff" stroke-width="1.590389"/><path d="M561.561 20.859l32.868 19.018m-39.04 13.406c4.384 4.165 10.26 6.508 16.371 6.508 6.11 0 11.986-2.343 16.371-6.508 4.385-4.165 6.947-9.821 7.167-15.711.22-5.891-1.903-11.547-5.849-15.712-3.945-4.165-9.381-6.508-15.052-6.508h.66c-5.671 0-11.107 2.343-15.053 6.508-2.626 4.165-3.43 9.821-1.892 15.712 1.539 5.89 5.421 11.546 11.124 15.711m9.635-9.944l-1.753-19.018" fill="none" stroke="#f8fcff" stroke-width="1.695235"/><path d="M630.278 20.611l31.415 21.216m-38.301 12.33c4.808 4.646 11.279 7.26 18.012 7.26 6.734 0 13.205-2.614 18.013-7.26 4.808-4.646 7.584-10.955 7.746-17.527.161-6.571-2.29-12.88-6.775-17.527-4.484-4.646-10.632-7.26-17.041-7.26h.485c-6.409 0-12.556 2.614-17.041 7.26-3.513 4.647-4.994 10.956-3.861 17.527 1.134 6.572 4.88 12.881 10.66 17.527m9.435-9.781l5.919-21.215" fill="none" stroke="#f8fcff" stroke-width="1.775561"/><path d="M698.827 20.422l30.302 22.899m-37.735 11.506c5.133 5.015 12.061 7.836 19.271 7.836 7.211 0 14.138-2.821 19.271-7.836 5.133-5.015 8.071-11.825 8.189-18.918.117-7.093-2.587-13.903-7.484-18.919-4.898-5.015-11.591-7.836-18.566-7.836h.352c-6.975 0-13.668 2.821-18.566 7.836-4.193 5.016-6.192 11.826-5.369 18.919.822 7.093 4.465 13.903 10.303 18.918m9.283-9.655l11.799-22.9" fill="none" stroke="#f8fcff" stroke-width="1.837132"/><path d="M767.249 20.276l29.446 24.194m-37.299 10.872c5.382 5.299 12.661 8.279 20.238 8.279 7.578 0 14.856-2.98 20.238-8.279 5.382-5.299 8.446-12.494 8.53-19.988.083-7.494-2.814-14.689-8.03-19.988-5.215-5.299-12.327-8.28-19.738-8.28h.25c-7.411 0-14.522 2.981-19.738 8.28-4.715 5.299-7.113 12.494-6.529 19.988.583 7.494 4.147 14.689 10.029 19.988m9.165-9.559l16.321-24.195" fill="none" stroke="#f8fcff" stroke-width="1.884466"/><path d="M835.573 20.164l28.79 25.188m-36.965 10.385c5.573 5.516 13.121 8.619 20.98 8.619s15.406-3.103 20.98-8.619c5.573-5.516 8.733-13.007 8.791-20.809.057-7.801-2.989-15.292-8.448-20.808-5.46-5.517-12.893-8.62-20.638-8.62h.172c-7.745 0-15.178 3.103-20.637 8.62-5.117 5.516-7.82 13.007-7.42 20.808.4 7.802 3.903 15.293 9.82 20.809m9.075-9.485l19.788-25.188" fill="none" stroke="#f8fcff" stroke-width="1.920776"/><path d="M903.819 20.079l28.291 25.942m-36.711 10.016c5.719 5.681 13.471 8.877 21.543 8.877 8.073 0 15.825-3.196 21.543-8.877 5.719-5.682 8.952-13.396 8.99-21.432.037-8.035-3.122-15.75-8.766-21.431-5.644-5.681-13.322-8.877-21.32-8.877h.112c-7.998 0-15.675 3.196-21.32 8.877-5.42 5.681-8.355 13.396-8.094 21.431.26 8.036 3.717 15.75 9.659 21.432m9.008-9.429l22.42-25.942" fill="none" stroke="#f8fcff" stroke-width="1.948336"/><path d="M972.002 20.016l27.921 26.501M963.4 56.259c5.826 5.804 13.73 9.069 21.961 9.069 8.231 0 16.135-3.265 21.961-9.069 5.827-5.804 9.114-13.685 9.137-21.893.022-8.209-3.22-16.09-9.002-21.894-5.781-5.804-13.64-9.069-21.826-9.069h.068c-8.186 0-16.045 3.265-21.827 9.069-5.646 5.804-8.753 13.685-8.596 21.894.158 8.208 3.58 16.089 9.542 21.893m8.956-9.387l24.374-26.501" fill="none" stroke="#f8fcff" stroke-width="1.968791"/><path d="M1040.132 19.971l27.657 26.9m-36.389 9.547c5.904 5.891 13.915 9.205 22.259 9.205 8.344 0 16.356-3.314 22.259-9.205 5.903-5.891 9.229-13.891 9.241-22.223.012-8.332-3.29-16.332-9.169-22.223-5.879-5.891-13.867-9.205-22.187-9.205h.036c-8.32 0-16.307 3.314-22.187 9.205-5.807 5.891-9.037 13.891-8.953 22.223.084 8.332 3.482 16.332 9.457 22.223m8.921-9.358l25.765-26.9" fill="none" stroke="#f8fcff" stroke-width="1.983359"/><path d="M1108.217 19.942l27.484 27.162m-36.3 9.418c5.954 5.949 14.036 9.296 22.455 9.296 8.418 0 16.501-3.347 22.455-9.296 5.954-5.948 9.305-14.026 9.31-22.44.006-8.413-3.336-16.491-9.279-22.439-5.944-5.949-14.017-9.296-22.425-9.296h.015c-8.408 0-16.481 3.347-22.425 9.296-5.913 5.948-9.224 14.026-9.188 22.439.035 8.414 3.417 16.492 9.401 22.44m8.897-9.338l26.683-27.162" fill="none" stroke="#f8fcff" stroke-width="1.992963"/><path d="M1176.265 19.925l27.387 27.309m-36.251 9.347c5.982 5.981 14.105 9.345 22.565 9.345s16.582-3.364 22.564-9.345c5.982-5.981 9.348-14.103 9.349-22.561.001-8.459-3.362-16.58-9.341-22.561-5.98-5.981-14.1-9.346-22.558-9.346h.004c-8.458 0-16.578 3.365-22.558 9.346-5.972 5.981-9.328 14.102-9.319 22.561.008 8.458 3.381 16.58 9.37 22.561m8.883-9.328l27.195-27.309" fill="none" stroke="#f8fcff" stroke-width="1.998321"/><path d="M1244.28 19.92l27.357 27.355m-36.236 9.324c5.991 5.991 14.126 9.361 22.599 9.361s16.608-3.37 22.599-9.361c5.991-5.991 9.361-14.126 9.361-22.599s-3.37-16.608-9.361-22.599C1274.608 5.41 1266.473 2.04 1258 2.04s-16.608 3.37-22.599 9.361c-5.991 5.991-9.361 14.126-9.361 22.599s3.37 16.608 9.361 22.599m8.879-9.324l27.355-27.355" fill="none" stroke="#f8fcff" stroke-width="2"/></svg>